<mxfile host="app.diagrams.net" modified="2023-03-01T07:53:35.716Z" agent="5.0 (Macintosh; Intel Mac OS X 10_15_7) AppleWebKit/605.1.15 (KHTML, like Gecko) Version/16.3 Safari/605.1.15" etag="ASOdSfSQxOQtkQndI8Mu" version="20.8.20" type="github">
  <diagram name="Страница 1" id="BKDGPuzrd8qzw8zUG01F">
    <mxGraphModel dx="1242" dy="827" grid="1" gridSize="10" guides="1" tooltips="1" connect="1" arrows="1" fold="1" page="1" pageScale="1" pageWidth="827" pageHeight="1169" math="0" shadow="0">
      <root>
        <mxCell id="0" />
        <mxCell id="1" parent="0" />
        <mxCell id="6eBMw2B0T_vQzR6f5CKa-3" value="" style="edgeStyle=orthogonalEdgeStyle;rounded=0;orthogonalLoop=1;jettySize=auto;html=1;fontSize=24;" edge="1" parent="1" source="6eBMw2B0T_vQzR6f5CKa-1" target="6eBMw2B0T_vQzR6f5CKa-2">
          <mxGeometry relative="1" as="geometry" />
        </mxCell>
        <mxCell id="6eBMw2B0T_vQzR6f5CKa-1" value="Начало" style="ellipse;whiteSpace=wrap;html=1;fontSize=24;" vertex="1" parent="1">
          <mxGeometry x="330" y="20" width="190" height="80" as="geometry" />
        </mxCell>
        <mxCell id="6eBMw2B0T_vQzR6f5CKa-5" value="" style="edgeStyle=orthogonalEdgeStyle;rounded=0;orthogonalLoop=1;jettySize=auto;html=1;fontSize=24;" edge="1" parent="1" source="6eBMw2B0T_vQzR6f5CKa-2" target="6eBMw2B0T_vQzR6f5CKa-4">
          <mxGeometry relative="1" as="geometry" />
        </mxCell>
        <mxCell id="6eBMw2B0T_vQzR6f5CKa-2" value="Ввод&lt;br&gt;N, A" style="shape=parallelogram;perimeter=parallelogramPerimeter;whiteSpace=wrap;html=1;fixedSize=1;fontSize=24;" vertex="1" parent="1">
          <mxGeometry x="320" y="130" width="200" height="60" as="geometry" />
        </mxCell>
        <mxCell id="6eBMw2B0T_vQzR6f5CKa-7" value="" style="edgeStyle=orthogonalEdgeStyle;rounded=0;orthogonalLoop=1;jettySize=auto;html=1;fontSize=24;" edge="1" parent="1" source="6eBMw2B0T_vQzR6f5CKa-4" target="6eBMw2B0T_vQzR6f5CKa-6">
          <mxGeometry relative="1" as="geometry" />
        </mxCell>
        <mxCell id="6eBMw2B0T_vQzR6f5CKa-9" value="" style="edgeStyle=orthogonalEdgeStyle;rounded=0;orthogonalLoop=1;jettySize=auto;html=1;fontSize=24;" edge="1" parent="1" source="6eBMw2B0T_vQzR6f5CKa-4" target="6eBMw2B0T_vQzR6f5CKa-8">
          <mxGeometry relative="1" as="geometry" />
        </mxCell>
        <mxCell id="6eBMw2B0T_vQzR6f5CKa-4" value="i = 0, i &amp;lt; N - 1, i ++" style="whiteSpace=wrap;html=1;fontSize=24;" vertex="1" parent="1">
          <mxGeometry x="320" y="220" width="200" height="80" as="geometry" />
        </mxCell>
        <mxCell id="6eBMw2B0T_vQzR6f5CKa-14" value="" style="edgeStyle=orthogonalEdgeStyle;rounded=0;orthogonalLoop=1;jettySize=auto;html=1;fontSize=24;" edge="1" parent="1" source="6eBMw2B0T_vQzR6f5CKa-6" target="6eBMw2B0T_vQzR6f5CKa-13">
          <mxGeometry relative="1" as="geometry" />
        </mxCell>
        <mxCell id="6eBMw2B0T_vQzR6f5CKa-6" value="Вывод А" style="shape=document;whiteSpace=wrap;html=1;boundedLbl=1;fontSize=24;" vertex="1" parent="1">
          <mxGeometry x="600" y="220" width="120" height="80" as="geometry" />
        </mxCell>
        <mxCell id="6eBMw2B0T_vQzR6f5CKa-12" style="edgeStyle=orthogonalEdgeStyle;rounded=0;orthogonalLoop=1;jettySize=auto;html=1;entryX=0;entryY=0.5;entryDx=0;entryDy=0;fontSize=24;" edge="1" parent="1" source="6eBMw2B0T_vQzR6f5CKa-8" target="6eBMw2B0T_vQzR6f5CKa-4">
          <mxGeometry relative="1" as="geometry">
            <Array as="points">
              <mxPoint x="300" y="405" />
              <mxPoint x="300" y="260" />
            </Array>
          </mxGeometry>
        </mxCell>
        <mxCell id="6eBMw2B0T_vQzR6f5CKa-8" value="temp = A [i]&lt;br&gt;A [i] = A [N-i]&lt;br&gt;A[N-i] = temp" style="whiteSpace=wrap;html=1;fontSize=24;" vertex="1" parent="1">
          <mxGeometry x="320" y="360" width="200" height="90" as="geometry" />
        </mxCell>
        <mxCell id="6eBMw2B0T_vQzR6f5CKa-10" value="да" style="text;html=1;align=center;verticalAlign=middle;resizable=0;points=[];autosize=1;strokeColor=none;fillColor=none;fontSize=24;" vertex="1" parent="1">
          <mxGeometry x="525" y="220" width="50" height="40" as="geometry" />
        </mxCell>
        <mxCell id="6eBMw2B0T_vQzR6f5CKa-11" value="нет" style="text;html=1;align=center;verticalAlign=middle;resizable=0;points=[];autosize=1;strokeColor=none;fillColor=none;fontSize=24;" vertex="1" parent="1">
          <mxGeometry x="430" y="310" width="60" height="40" as="geometry" />
        </mxCell>
        <mxCell id="6eBMw2B0T_vQzR6f5CKa-13" value="Завершение" style="ellipse;whiteSpace=wrap;html=1;fontSize=24;" vertex="1" parent="1">
          <mxGeometry x="760" y="220" width="180" height="80" as="geometry" />
        </mxCell>
      </root>
    </mxGraphModel>
  </diagram>
</mxfile>
